<?xml version="1.0" encoding="utf-8"?>
<!-- Generator: Adobe Illustrator 27.5.0, SVG Export Plug-In . SVG Version: 6.00 Build 0)  -->
<svg version="1.1" id="Layer_1" xmlns="http://www.w3.org/2000/svg" xmlns:xlink="http://www.w3.org/1999/xlink" x="0px" y="0px"
	 viewBox="0 0 524 378" style="enable-background:new 0 0 524 378;" xml:space="preserve">
<style type="text/css">
	.st0{fill:#005896;}
	.st1{fill-rule:evenodd;clip-rule:evenodd;fill:#FDD301;}
	.st2{fill:#044F89;}
	.st3{fill:#FDD301;}
	.st4{fill-rule:evenodd;clip-rule:evenodd;fill:#FFFFFF;}
	.st5{fill-rule:evenodd;clip-rule:evenodd;fill:#044F89;}
	.st6{fill:none;}
</style>
<g>
	<path class="st0" d="M262,261.1"/>
	<path class="st1" d="M481.1,188.3c-0.1,28.9-6.4,52.9-14.7,57.7l0,0c-0.1,0-0.1,0.1-0.2,0.1c-4.7,2.7-12.6,4.8-22,5.6h-0.1
		c-0.1,0-0.3,0-0.4,0c-26.7,2.2-100.8,3.8-181.7,3.8s-154.9-1.6-181.7-3.9c-0.1,0-0.3,0-0.4,0h-0.1c-9.4-0.8-17.3-2.9-22-5.6
		c-0.1,0-0.1-0.1-0.2-0.1h-0.1c-8.3-4.9-14.7-29.1-14.7-58.2v-0.3c0.1-29,6.4-53,14.7-57.9h0.1c0.1,0,0.1-0.1,0.2-0.1
		c4.7-2.7,12.6-4.8,22-5.6h0.1c0.1,0,0.3,0,0.4,0C107,121.6,181.1,120,262,120s155,1.6,181.7,3.8c0.1,0,0.3,0,0.4,0h0.1
		c9.4,0.8,17.3,2.8,22,5.6c0.1,0,0.1,0.1,0.2,0.1l0,0c8.4,4.9,14.7,29.1,14.7,58.3V188.3z"/>
	<path class="st2" d="M48.4,217c2.5,14.4,6.8,24,11,26.5c4.4,2.5,11.9,4.4,21.1,5.2c26.9,2.3,101.5,3.8,181.4,3.8
		s154.5-1.6,181.9-3.9c8.8-0.7,16.3-2.6,20.9-5.3c4.1-2.4,8.3-12,10.8-26.4c-60.6-6-134.2-9.5-213.6-9.5
		C182.6,207.5,109.1,211,48.4,217"/>
	<path class="st3" d="M46,187.9c0.1-30.1,6.7-51.8,13.2-55.5c4.6-2.7,12.2-4.6,20.9-5.3c27.3-2.3,101.9-3.9,181.8-3.9
		s154.6,1.6,181.4,3.8c9.2,0.8,16.8,2.7,21.1,5.2c6.7,3.9,13.4,25.8,13.4,55.8v0.3c0,10.8-0.9,20.5-2.4,28.7
		c2.1,0.2,4.2,0.4,6.2,0.6c1.5-8.7,2.4-18.7,2.4-29.3v-0.4c0-30.3-6.7-55.4-16.3-61c-5.5-3.2-13.7-5.3-23.6-6.1
		c-27.5-2.3-102.3-3.9-182.4-3.9s-154.9,1.6-181.9,3.9c-10.2,0.9-18.5,3-23.8,6c-9.8,5.7-16.5,30.6-16.5,60.8
		c0,11,0.9,21.2,2.4,30.1c2.1-0.2,4.1-0.4,6.2-0.6C47,208.7,46.1,198.9,46,187.9"/>
	<path class="st3" d="M56.1,248.8c5.5,3.2,13.8,5.3,23.6,6.1c27.5,2.3,102.3,3.9,182.4,3.9s154.9-1.6,182-3.9
		c10.2-0.9,18.5-3,23.7-6c6.3-3.7,11.3-15.4,14.1-31.3c-2.1-0.2-4.1-0.4-6.2-0.6c-2.5,14.3-6.7,24-10.8,26.4
		c-4.6,2.7-12.2,4.6-20.9,5.3c-27.3,2.3-101.9,3.9-181.9,3.9s-154.6-1.6-181.5-3.9c-9.2-0.8-16.7-2.7-21.1-5.2
		c-4.2-2.5-8.5-12.2-11-26.5c-2.1,0.2-4.2,0.4-6.2,0.6C45,233.6,49.9,245.2,56.1,248.8"/>
	<path class="st4" d="M155.8,225.3l3.7,8.2h-7L155.8,225.3z M157,220.3h-2.3l-9.7,22.8h3.3l2.9-6.7h9.6l3,6.7h3.3L157,220.3z"/>
	<path class="st4" d="M189.5,231.9h-7.6v2.9h4.3v4.7c-1.6,0.5-3.2,0.9-4.9,0.9c-5.4,0-9.2-3.6-9.2-8.6c0-4.9,3.8-8.7,8.7-8.7
		c2.7,0,5.5,0.8,8.1,2.2V222c-3.6-1.5-5.4-1.9-8.1-1.9c-6.9,0-12.2,5.1-12.2,11.8c0,6.6,5.1,11.5,12.1,11.5c3.2,0,5.6-0.5,8.6-1.9
		v-9.6H189.5z"/>
	<path class="st4" d="M199.2,223.2h2.1c3.2,0,4.4,1.3,4.5,3.4c0,1.9-1,3.7-4.5,3.7h-2.1V223.2z M196,220.4v22.7h3.3v-9.8h1.4
		c1.7,0,3,0.5,6,5.2l3,4.6h3.9c-1.6-2.2-2.1-2.9-3.1-4.5c-1.7-2.8-3-4.9-5.1-6.3c2.4-1,3.8-2.9,3.8-5.5c0-3.9-2.9-6.4-7.4-6.4
		L196,220.4L196,220.4z"/>
	<rect x="217.7" y="220.4" class="st4" width="3.3" height="22.7"/>
	<path class="st4" d="M246.9,222c-3.1-1.3-5.5-1.9-7.8-1.9c-7.2,0-12.4,5-12.4,12c0,4.8,3.7,11.3,12.2,11.3c3.6,0,6-0.8,8.2-2v-3.6
		c-2.6,1.7-5.3,2.6-7.9,2.6c-5.5,0-9.2-3.5-9.2-8.6c0-5,3.8-8.7,9-8.7c2.6,0,5,0.7,7.8,2.4V222H246.9z"/>
	<path class="st4" d="M271.8,220.4h-3.3v13.2c0,2.1-0.3,3.8-1.4,5c-1,1-2.8,1.8-5.3,1.8c-2,0-3.6-0.6-4.9-1.9c-1-1-1.4-2.1-1.4-4.6
		v-13.4h-3.3v14.1c0,6.2,4.7,8.9,9.4,8.9c6.7,0,10.1-3.7,10.1-9.2v-13.9H271.8z"/>
	<polygon class="st4" points="281.2,220.4 277.9,220.4 277.9,243.1 291.4,243.1 291.4,240.1 281.2,240.1 	"/>
	<polygon class="st4" points="309.3,220.4 290.3,220.4 290.3,223.3 298.2,223.3 298.2,243.1 301.4,243.1 301.4,223.3 309.3,223.3 	
		"/>
	<path class="st4" d="M333,220.4h-3.3v13.2c0,2.1-0.3,3.8-1.4,5c-1,1-2.8,1.8-5.3,1.8c-2,0-3.6-0.6-4.9-1.9c-1-1-1.4-2.1-1.4-4.6
		v-13.4h-3.3v14.1c0,6.2,4.6,8.9,9.4,8.9c6.8,0,10.1-3.7,10.1-9.2v-13.9H333z"/>
	<path class="st4" d="M342.5,223.2h2.1c3.2,0,4.4,1.3,4.5,3.4c0,1.9-1,3.7-4.5,3.7h-2.1V223.2z M339.2,220.4v22.7h3.3v-9.8h1.4
		c1.7,0,3,0.5,6,5.2l3,4.6h3.9c-1.6-2.2-2.1-2.9-3.1-4.5c-1.7-2.8-3-4.9-5.1-6.3c2.4-1,3.8-2.9,3.8-5.5c0-3.9-2.9-6.4-7.4-6.4
		L339.2,220.4L339.2,220.4z"/>
	<polygon class="st4" points="373.8,220.4 360.9,220.4 360.9,243.1 374.1,243.1 374.1,240.2 364.2,240.2 364.2,233.1 373.4,233.1 
		373.4,230.2 364.2,230.2 364.2,223.3 373.8,223.3 	"/>
	<path class="st5" d="M126.8,148.6l-8.1,7.8c-2.4,2.3-4.1,4.5-5.4,6.6c-1.8,2.9-3.6,7.9-3.7,11.7c0,0-0.1,1.9-0.1,3.7
		c0,0.6,0,1.3,0,1.8c0,0.7,0.9,0.9,1.3,0.5l21.2-20.4c0.8-0.7,1-1.7,0.9-2.6c-0.3-3.3-2.5-7.8-3.9-9.2
		C128,147.7,127.2,148.1,126.8,148.6 M111.9,141.2c-0.8-0.1-1.5,0.2-1.7,0.7c-0.3,0.5-0.2,1-0.3,1.6c-0.2,2.5-0.3,6.7-0.3,7.2
		l-0.1,7.8c0,1.5,1.1,1.3,1.5,0.9c0.4-0.4,4-3.9,7.4-7.1l6.1-5.9c0.4-0.4,0.6-1.1-0.1-1.7c-0.7-0.6-2.9-1.6-6.2-2.5
		c-1-0.3-2.4-0.5-3.6-0.7C113,141.3,111.9,141.2,111.9,141.2 M133.5,165c0,0.2,0,0.2,0,0.2c0.4,4.4,0,8.9-0.2,11.7
		c-1.3,13.2-11,16.5-15.1,17.6c-1.7,0.5-5.4,1-6.7,1.1c-1.7,0.1-2.1-0.8-2-1.5c0.4-7.6,8.2-15.7,8.2-15.7c0.2-0.3,1.4-1.4,2.7-2.7
		c2-2,11.8-11.4,11.8-11.4c0.1-0.1,0.3-0.2,0.5-0.2C133.2,164.3,133.5,164.5,133.5,165 M88.5,148.6l8.1,7.8c2.4,2.3,4.1,4.5,5.4,6.6
		c1.8,2.9,3.6,7.9,3.7,11.7c0,0,0.1,1.9,0.1,3.7c0,0.6,0,1.3,0,1.8c0,0.7-0.9,0.9-1.3,0.5l-21.3-20.4c-0.8-0.7-1-1.7-0.9-2.6
		c0.3-3.3,2.5-7.8,3.9-9.2C87.2,147.7,88,148.1,88.5,148.6 M103.4,141.2c0.8-0.1,1.5,0.2,1.8,0.7s0.2,1,0.3,1.6
		c0.2,2.5,0.3,6.7,0.3,7.2l0.1,7.8c0,1.5-1.1,1.3-1.5,0.9c-0.4-0.4-4-3.8-7.4-7.1l-6.1-5.9c-0.4-0.4-0.6-1.1,0.1-1.7
		c0.7-0.6,2.9-1.6,6.2-2.5c1-0.3,2.4-0.5,3.6-0.7C102.2,141.3,103.4,141.2,103.4,141.2 M81.7,165c0,0.2,0,0.2,0,0.2
		c-0.4,4.4,0,8.9,0.2,11.7c1.3,13.2,11,16.5,15.2,17.6c1.7,0.5,5.4,1,6.6,1.1c1.7,0.1,2.1-0.8,2-1.5c-0.4-7.6-8.2-15.7-8.2-15.7
		c-0.2-0.3-1.4-1.4-2.7-2.7c-1.9-1.9-11.8-11.4-11.8-11.4c-0.1-0.1-0.3-0.2-0.5-0.2C82,164.3,81.7,164.5,81.7,165"/>
	<path class="st5" d="M435.9,156.5h-8.2h-9.2c-0.3,0-0.5,0.2-0.5,0.5v29.7c0,0.3,0.2,0.5,0.5,0.5h9.2h7.3c2.9,0,5.2-0.9,7-2.6
		c2.5-2.5,3.7-6.8,3.7-12.9C445.6,162,442.1,156.5,435.9,156.5 M157.6,171.8v15.1c0,0.3-0.2,0.5-0.5,0.5h-8.7
		c-0.3,0-0.5-0.2-0.5-0.5v-29.7c0-0.3,0.2-0.5,0.5-0.5h7.5c0.2,0,0.3,0.1,0.4,0.2l9,15.3v-15.1c0-0.3,0.2-0.5,0.5-0.5h8.7
		c0.3,0,0.5,0.2,0.5,0.5v29.7c0,0.3-0.2,0.5-0.5,0.5H167c-0.2,0-0.3-0.1-0.4-0.2L157.6,171.8z M346.3,181.5h7.4
		c0.1,0,0.3,0.1,0.4,0.2c0.1,0.1,0.1,0.3,0.1,0.4l-1.2,4.7c-0.1,0.2-0.2,0.4-0.5,0.4h-15.4c-0.3,0-0.5-0.2-0.5-0.5V157
		c0-0.3,0.2-0.5,0.5-0.5h8.7c0.3,0,0.5,0.2,0.5,0.5V181.5z M325.8,181.5h7.6c0.3,0,0.5,0.2,0.5,0.5v4.7c0,0.3-0.2,0.5-0.5,0.5h-16.8
		c-0.3,0-0.5-0.2-0.5-0.5V157c0-0.3,0.2-0.5,0.5-0.5h8.7c0.3,0,0.5,0.2,0.5,0.5L325.8,181.5L325.8,181.5z M223,168.2l-3.4,18.6
		c0,0.2-0.2,0.4-0.5,0.4h-10c-0.2,0-0.4-0.2-0.5-0.4l-5.3-29.7c0-0.1,0-0.3,0.1-0.4c0.1-0.1,0.2-0.2,0.4-0.2h8.1
		c0.2,0,0.4,0.2,0.5,0.4l3,18.1l3.3-18.1c0-0.2,0.2-0.4,0.5-0.4h7.7c0.2,0,0.4,0.2,0.5,0.4l3.3,18.1l3-18.1c0-0.2,0.2-0.4,0.5-0.4
		h8.1c0.1,0,0.3,0.1,0.4,0.2c0.1,0.1,0.1,0.3,0.1,0.4l-5.3,29.7c0,0.2-0.2,0.4-0.5,0.4h-10c-0.2,0-0.4-0.2-0.5-0.4L223,168.2z
		 M199.7,168.7c0.3,0,0.5,0.2,0.5,0.5v4.7c0,0.3-0.2,0.5-0.5,0.5h-11.9c0.2,4.9,1.1,7.2,2.6,7.2H201c0.3,0,0.5,0.2,0.5,0.5v4.7
		c0,0.3-0.2,0.5-0.5,0.5h-14.9c-5.7,0-8.1-4.6-8.1-15.4s2.4-15.4,8.1-15.4h14.1c0.2,0,0.4,0.2,0.5,0.4l0.7,4.1c0,0.1,0,0.3-0.1,0.4
		c-0.1,0.1-0.2,0.2-0.4,0.2h-10.5c-1.5,0-2.3,2.4-2.6,7.2h11.9V168.7z M281.1,156.5h-8.7c-0.3,0-0.5,0.2-0.5,0.5v11.7H264V157
		c0-0.3-0.2-0.5-0.5-0.5h-8.7c-0.3,0-0.5,0.2-0.5,0.5v29.7c0,0.3,0.2,0.5,0.5,0.5h8.7c0.3,0,0.5-0.2,0.5-0.5v-12.1h7.9v12.1
		c0,0.3,0.2,0.5,0.5,0.5h8.7c0.3,0,0.5-0.2,0.5-0.5V157C281.6,156.7,281.4,156.5,281.1,156.5 M384.8,186.6l-7.9-29.7
		c-0.1-0.2-0.2-0.4-0.5-0.4h-12.9c-0.2,0-0.4,0.2-0.5,0.4l-7.8,29.7c0,0.1,0,0.3,0.1,0.4c0.1,0.1,0.2,0.2,0.4,0.2h8.3
		c0.2,0,0.4-0.2,0.5-0.4l1.4-5.9h8.3l1.4,5.9c0.1,0.2,0.2,0.4,0.5,0.4h8.3c0.1,0,0.3-0.1,0.4-0.2
		C384.8,186.9,384.8,186.7,384.8,186.6 M367.3,174.9l2.8-11.8l2.8,11.8H367.3z M313,171.8c0,10.8-2.4,15.4-8.1,15.4h-12.2
		c-5.7,0-8.1-4.6-8.1-15.4s2.4-15.4,8.1-15.4H305C310.6,156.5,313,161.1,313,171.8 M396.3,186.7c0,0.3-0.2,0.5-0.5,0.5h-8.7
		c-0.3,0-0.5-0.2-0.5-0.5V157c0-0.3,0.2-0.5,0.5-0.5h7.5c0.2,0,0.3,0.1,0.4,0.2l9,15.3v-15.1c0-0.3,0.2-0.5,0.5-0.5h8.7
		c0.3,0,0.5,0.2,0.5,0.5v29.7c0,0.3-0.2,0.5-0.5,0.5h-7.5c-0.2,0-0.3-0.1-0.4-0.2l-9-15.3V186.7z M433.2,180.3c-1,1-2.4,1.5-4,1.5
		h-1.5v-20.1h4.8c0.5,0,1,0.2,1.5,0.7c0.9,0.9,2,3,2,7.9C435.9,175.2,435,178.5,433.2,180.3 M303.3,171.5c0-5.4-0.5-8.5-1.6-9.6
		c-0.3-0.3-0.6-0.4-1-0.4h-3.6c-1.8,0-2.6,3.3-2.6,10c0,5.4,0.5,8.5,1.6,9.6c0.3,0.3,0.6,0.4,1,0.4h3.6c0.4,0,0.7-0.1,1-0.4
		C302.7,180,303.3,176.9,303.3,171.5"/>
</g>
<rect x="25.2" y="106.9" class="st6" width="473.5" height="164.1"/>
</svg>
